#define frame11_width 40
#define frame11_height 16
static unsigned char frame11_bits[] = {
   0x00, 0x00, 0x00, 0x00, 0x00, 0x00, 0x00, 0x00, 0x00, 0x00, 0x00, 0x00,
   0x00, 0x00, 0x00, 0x00, 0x00, 0x00, 0x00, 0x00, 0x00, 0x00, 0x04, 0x00,
   0x00, 0x00, 0x20, 0x04, 0x00, 0x00, 0x00, 0x70, 0x04, 0x00, 0x00, 0x00,
   0x50, 0xe4, 0x5c, 0x3b, 0x00, 0x88, 0x04, 0x45, 0x44, 0x00, 0xf8, 0xe4,
   0x45, 0x44, 0x00, 0x88, 0x14, 0x45, 0x44, 0x00, 0x04, 0x65, 0x45, 0x44,
   0x00, 0x00, 0x00, 0x00, 0x00, 0x00, 0x00, 0x00, 0x00, 0x00, 0x00, 0x00,
   0x00, 0x00, 0x00, 0x00, 0x00, 0x00, 0x00, 0x00 };
