#define frame5_width 40
#define frame5_height 16
static unsigned char frame5_bits[] = {
   0x00, 0x00, 0x00, 0x00, 0x00, 0x00, 0x00, 0x00, 0x00, 0x00, 0x00, 0x00,
   0x00, 0x00, 0x00, 0x00, 0x00, 0x00, 0x00, 0x00, 0x00, 0x10, 0x00, 0x00,
   0x00, 0x80, 0x10, 0x00, 0x00, 0x00, 0xc0, 0x11, 0x00, 0x00, 0x00, 0x40,
   0x91, 0x73, 0xed, 0x00, 0x20, 0x12, 0x14, 0x11, 0x01, 0xe0, 0x93, 0x17,
   0x11, 0x01, 0x20, 0x52, 0x14, 0x11, 0x01, 0x10, 0x94, 0x15, 0x11, 0x01,
   0x00, 0x00, 0x00, 0x00, 0x00, 0x00, 0x00, 0x00, 0x00, 0x00, 0x00, 0x00,
   0x00, 0x00, 0x00, 0x00, 0x00, 0x00, 0x00, 0x00 };
