#define frame7_width 40
#define frame7_height 16
static unsigned char frame7_bits[] = {
   0x00, 0x00, 0x00, 0x00, 0x00, 0x00, 0x00, 0x00, 0x00, 0x00, 0x00, 0x00,
   0x00, 0x00, 0x00, 0x00, 0x00, 0x00, 0x00, 0x00, 0x00, 0x40, 0x00, 0x00,
   0x00, 0x00, 0x42, 0x00, 0x00, 0x00, 0x00, 0x47, 0x00, 0x00, 0x00, 0x00,
   0x45, 0xce, 0xb5, 0x03, 0x80, 0x48, 0x50, 0x44, 0x04, 0x80, 0x4f, 0x5e,
   0x44, 0x04, 0x80, 0x48, 0x51, 0x44, 0x04, 0x40, 0x50, 0x56, 0x44, 0x04,
   0x00, 0x00, 0x00, 0x00, 0x00, 0x00, 0x00, 0x00, 0x00, 0x00, 0x00, 0x00,
   0x00, 0x00, 0x00, 0x00, 0x00, 0x00, 0x00, 0x00 };
