#define frame6_width 40
#define frame6_height 16
static unsigned char frame6_bits[] = {
   0x00, 0x00, 0x00, 0x00, 0x00, 0x00, 0x00, 0x00, 0x00, 0x00, 0x00, 0x00,
   0x00, 0x00, 0x00, 0x00, 0x00, 0x00, 0x00, 0x00, 0x00, 0x20, 0x00, 0x00,
   0x00, 0x00, 0x21, 0x00, 0x00, 0x00, 0x80, 0x23, 0x00, 0x00, 0x00, 0x80,
   0x22, 0xe7, 0xda, 0x01, 0x40, 0x24, 0x28, 0x22, 0x02, 0xc0, 0x27, 0x2f,
   0x22, 0x02, 0x40, 0xa4, 0x28, 0x22, 0x02, 0x20, 0x28, 0x2b, 0x22, 0x02,
   0x00, 0x00, 0x00, 0x00, 0x00, 0x00, 0x00, 0x00, 0x00, 0x00, 0x00, 0x00,
   0x00, 0x00, 0x00, 0x00, 0x00, 0x00, 0x00, 0x00 };
