#define frame9_width 40
#define frame9_height 16
static unsigned char frame9_bits[] = {
   0x00, 0x00, 0x00, 0x00, 0x00, 0x00, 0x00, 0x00, 0x00, 0x00, 0x00, 0x00,
   0x00, 0x00, 0x00, 0x00, 0x00, 0x00, 0x00, 0x00, 0x00, 0x00, 0x01, 0x00,
   0x00, 0x00, 0x08, 0x01, 0x00, 0x00, 0x00, 0x1c, 0x01, 0x00, 0x00, 0x00,
   0x14, 0x39, 0xd7, 0x0e, 0x00, 0x22, 0x41, 0x11, 0x11, 0x00, 0x3e, 0x79,
   0x11, 0x11, 0x00, 0x22, 0x45, 0x11, 0x11, 0x00, 0x41, 0x59, 0x11, 0x11,
   0x00, 0x00, 0x00, 0x00, 0x00, 0x00, 0x00, 0x00, 0x00, 0x00, 0x00, 0x00,
   0x00, 0x00, 0x00, 0x00, 0x00, 0x00, 0x00, 0x00 };
