#define frame2_width 40
#define frame2_height 16
static unsigned char frame2_bits[] = {
   0x00, 0x00, 0x00, 0x00, 0x00, 0x00, 0x00, 0x00, 0x00, 0x00, 0x00, 0x00,
   0x00, 0x00, 0x00, 0x00, 0x00, 0x00, 0x00, 0x00, 0x00, 0x02, 0x00, 0x00,
   0x00, 0x10, 0x02, 0x00, 0x00, 0x00, 0x38, 0x02, 0x00, 0x00, 0x00, 0x28,
   0x72, 0xae, 0x1d, 0x00, 0x44, 0x82, 0x22, 0x22, 0x00, 0x7c, 0xf2, 0x22,
   0x22, 0x00, 0x44, 0x8a, 0x22, 0x22, 0x00, 0x82, 0xb2, 0x22, 0x22, 0x00,
   0x00, 0x00, 0x00, 0x00, 0x00, 0x00, 0x00, 0x00, 0x00, 0x00, 0x00, 0x00,
   0x00, 0x00, 0x00, 0x00, 0x00, 0x00, 0x00, 0x00 };
